<mxfile host="app.diagrams.net" modified="2023-11-26T06:55:27.386Z" agent="Mozilla/5.0 (Windows NT 10.0; Win64; x64) AppleWebKit/537.36 (KHTML, like Gecko) Chrome/119.0.0.0 Safari/537.36" etag="ymPduvMwfgQvwp8YwPID" version="22.1.4" type="github">
  <diagram name="Page-1" id="z9oaCHNkM-a_YvZkzjvF">
    <mxGraphModel dx="1400" dy="1924" grid="1" gridSize="10" guides="1" tooltips="1" connect="1" arrows="1" fold="1" page="1" pageScale="1" pageWidth="827" pageHeight="1169" math="0" shadow="0">
      <root>
        <mxCell id="0" />
        <mxCell id="1" parent="0" />
        <mxCell id="hwyYwkf5o8Iqh9SDKznZ-16" value="Availability zone 1" style="sketch=0;outlineConnect=0;gradientColor=none;html=1;whiteSpace=wrap;fontSize=12;fontStyle=0;shape=mxgraph.aws4.group;grIcon=mxgraph.aws4.group_availability_zone;strokeColor=#545B64;fillColor=none;verticalAlign=top;align=left;spacingLeft=30;fontColor=#545B64;dashed=1;" vertex="1" parent="1">
          <mxGeometry x="120" y="160" width="240" height="440" as="geometry" />
        </mxCell>
        <mxCell id="hwyYwkf5o8Iqh9SDKznZ-1" value="VPC" style="points=[[0,0],[0.25,0],[0.5,0],[0.75,0],[1,0],[1,0.25],[1,0.5],[1,0.75],[1,1],[0.75,1],[0.5,1],[0.25,1],[0,1],[0,0.75],[0,0.5],[0,0.25]];outlineConnect=0;gradientColor=none;html=1;whiteSpace=wrap;fontSize=12;fontStyle=0;container=1;pointerEvents=0;collapsible=0;recursiveResize=0;shape=mxgraph.aws4.group;grIcon=mxgraph.aws4.group_vpc2;strokeColor=#8C4FFF;fillColor=none;verticalAlign=top;align=left;spacingLeft=30;fontColor=#AAB7B8;dashed=0;" vertex="1" parent="1">
          <mxGeometry x="80" y="120" width="680" height="520" as="geometry" />
        </mxCell>
        <mxCell id="hwyYwkf5o8Iqh9SDKznZ-22" value="Availability zone 2" style="sketch=0;outlineConnect=0;gradientColor=none;html=1;whiteSpace=wrap;fontSize=12;fontStyle=0;shape=mxgraph.aws4.group;grIcon=mxgraph.aws4.group_availability_zone;strokeColor=#545B64;fillColor=none;verticalAlign=top;align=left;spacingLeft=30;fontColor=#545B64;dashed=1;" vertex="1" parent="hwyYwkf5o8Iqh9SDKznZ-1">
          <mxGeometry x="400" y="40" width="240" height="440" as="geometry" />
        </mxCell>
        <mxCell id="hwyYwkf5o8Iqh9SDKznZ-2" value="Public subnet" style="points=[[0,0],[0.25,0],[0.5,0],[0.75,0],[1,0],[1,0.25],[1,0.5],[1,0.75],[1,1],[0.75,1],[0.5,1],[0.25,1],[0,1],[0,0.75],[0,0.5],[0,0.25]];outlineConnect=0;gradientColor=none;html=1;whiteSpace=wrap;fontSize=12;fontStyle=0;container=1;pointerEvents=0;collapsible=0;recursiveResize=0;shape=mxgraph.aws4.group;grIcon=mxgraph.aws4.group_security_group;grStroke=0;strokeColor=#7AA116;fillColor=#F2F6E8;verticalAlign=top;align=left;spacingLeft=30;fontColor=#248814;dashed=0;" vertex="1" parent="hwyYwkf5o8Iqh9SDKznZ-1">
          <mxGeometry x="80" y="80" width="160" height="160" as="geometry" />
        </mxCell>
        <mxCell id="hwyYwkf5o8Iqh9SDKznZ-6" value="" style="sketch=0;outlineConnect=0;fontColor=#232F3E;gradientColor=none;fillColor=#8C4FFF;strokeColor=none;dashed=0;verticalLabelPosition=bottom;verticalAlign=top;align=center;html=1;fontSize=12;fontStyle=0;aspect=fixed;pointerEvents=1;shape=mxgraph.aws4.nat_gateway;" vertex="1" parent="hwyYwkf5o8Iqh9SDKznZ-2">
          <mxGeometry x="50" y="50" width="60" height="60" as="geometry" />
        </mxCell>
        <mxCell id="hwyYwkf5o8Iqh9SDKznZ-3" value="Private subnet" style="points=[[0,0],[0.25,0],[0.5,0],[0.75,0],[1,0],[1,0.25],[1,0.5],[1,0.75],[1,1],[0.75,1],[0.5,1],[0.25,1],[0,1],[0,0.75],[0,0.5],[0,0.25]];outlineConnect=0;gradientColor=none;html=1;whiteSpace=wrap;fontSize=12;fontStyle=0;container=1;pointerEvents=0;collapsible=0;recursiveResize=0;shape=mxgraph.aws4.group;grIcon=mxgraph.aws4.group_security_group;grStroke=0;strokeColor=#00A4A6;fillColor=#E6F6F7;verticalAlign=top;align=left;spacingLeft=30;fontColor=#147EBA;dashed=0;" vertex="1" parent="hwyYwkf5o8Iqh9SDKznZ-1">
          <mxGeometry x="80" y="280" width="160" height="160" as="geometry" />
        </mxCell>
        <mxCell id="hwyYwkf5o8Iqh9SDKznZ-14" value="EC2" style="outlineConnect=0;dashed=0;verticalLabelPosition=bottom;verticalAlign=top;align=center;html=1;shape=mxgraph.aws3.ec2;fillColor=#F58534;gradientColor=none;" vertex="1" parent="hwyYwkf5o8Iqh9SDKznZ-3">
          <mxGeometry x="50" y="50" width="60" height="70" as="geometry" />
        </mxCell>
        <mxCell id="hwyYwkf5o8Iqh9SDKznZ-18" value="Public subnet" style="points=[[0,0],[0.25,0],[0.5,0],[0.75,0],[1,0],[1,0.25],[1,0.5],[1,0.75],[1,1],[0.75,1],[0.5,1],[0.25,1],[0,1],[0,0.75],[0,0.5],[0,0.25]];outlineConnect=0;gradientColor=none;html=1;whiteSpace=wrap;fontSize=12;fontStyle=0;container=1;pointerEvents=0;collapsible=0;recursiveResize=0;shape=mxgraph.aws4.group;grIcon=mxgraph.aws4.group_security_group;grStroke=0;strokeColor=#7AA116;fillColor=#F2F6E8;verticalAlign=top;align=left;spacingLeft=30;fontColor=#248814;dashed=0;" vertex="1" parent="hwyYwkf5o8Iqh9SDKznZ-1">
          <mxGeometry x="440" y="80" width="160" height="160" as="geometry" />
        </mxCell>
        <mxCell id="hwyYwkf5o8Iqh9SDKznZ-19" value="" style="sketch=0;outlineConnect=0;fontColor=#232F3E;gradientColor=none;fillColor=#8C4FFF;strokeColor=none;dashed=0;verticalLabelPosition=bottom;verticalAlign=top;align=center;html=1;fontSize=12;fontStyle=0;aspect=fixed;pointerEvents=1;shape=mxgraph.aws4.nat_gateway;" vertex="1" parent="hwyYwkf5o8Iqh9SDKznZ-18">
          <mxGeometry x="50" y="50" width="60" height="60" as="geometry" />
        </mxCell>
        <mxCell id="hwyYwkf5o8Iqh9SDKznZ-20" value="Private subnet" style="points=[[0,0],[0.25,0],[0.5,0],[0.75,0],[1,0],[1,0.25],[1,0.5],[1,0.75],[1,1],[0.75,1],[0.5,1],[0.25,1],[0,1],[0,0.75],[0,0.5],[0,0.25]];outlineConnect=0;gradientColor=none;html=1;whiteSpace=wrap;fontSize=12;fontStyle=0;container=1;pointerEvents=0;collapsible=0;recursiveResize=0;shape=mxgraph.aws4.group;grIcon=mxgraph.aws4.group_security_group;grStroke=0;strokeColor=#00A4A6;fillColor=#E6F6F7;verticalAlign=top;align=left;spacingLeft=30;fontColor=#147EBA;dashed=0;" vertex="1" parent="hwyYwkf5o8Iqh9SDKznZ-1">
          <mxGeometry x="440" y="280" width="160" height="160" as="geometry" />
        </mxCell>
        <mxCell id="hwyYwkf5o8Iqh9SDKznZ-21" value="EC2" style="outlineConnect=0;dashed=0;verticalLabelPosition=bottom;verticalAlign=top;align=center;html=1;shape=mxgraph.aws3.ec2;fillColor=#F58534;gradientColor=none;" vertex="1" parent="hwyYwkf5o8Iqh9SDKznZ-20">
          <mxGeometry x="50" y="50" width="60" height="70" as="geometry" />
        </mxCell>
        <mxCell id="hwyYwkf5o8Iqh9SDKznZ-25" value="" style="sketch=0;outlineConnect=0;fontColor=#232F3E;gradientColor=none;fillColor=#8C4FFF;strokeColor=none;dashed=0;verticalLabelPosition=bottom;verticalAlign=top;align=center;html=1;fontSize=12;fontStyle=0;aspect=fixed;pointerEvents=1;shape=mxgraph.aws4.application_load_balancer;" vertex="1" parent="hwyYwkf5o8Iqh9SDKznZ-1">
          <mxGeometry x="301" y="162" width="78" height="78" as="geometry" />
        </mxCell>
        <mxCell id="hwyYwkf5o8Iqh9SDKznZ-23" value="" style="rounded=1;arcSize=10;dashed=1;strokeColor=#F59D56;fillColor=none;gradientColor=none;dashPattern=8 4;strokeWidth=2;" vertex="1" parent="1">
          <mxGeometry x="190" y="440" width="460" height="110" as="geometry" />
        </mxCell>
        <mxCell id="hwyYwkf5o8Iqh9SDKznZ-29" style="edgeStyle=orthogonalEdgeStyle;rounded=0;orthogonalLoop=1;jettySize=auto;html=1;" edge="1" parent="1" source="hwyYwkf5o8Iqh9SDKznZ-23" target="hwyYwkf5o8Iqh9SDKznZ-28">
          <mxGeometry relative="1" as="geometry" />
        </mxCell>
        <mxCell id="hwyYwkf5o8Iqh9SDKznZ-24" value="AUTOSCALING&lt;br&gt;GROUP" style="sketch=0;outlineConnect=0;fontColor=#232F3E;gradientColor=none;fillColor=#ED7100;strokeColor=none;dashed=0;verticalLabelPosition=bottom;verticalAlign=top;align=center;html=1;fontSize=12;fontStyle=0;aspect=fixed;pointerEvents=1;shape=mxgraph.aws4.auto_scaling2;" vertex="1" parent="1">
          <mxGeometry x="396" y="440" width="48" height="48" as="geometry" />
        </mxCell>
        <mxCell id="hwyYwkf5o8Iqh9SDKznZ-26" style="edgeStyle=orthogonalEdgeStyle;rounded=0;orthogonalLoop=1;jettySize=auto;html=1;entryX=0.109;entryY=0;entryDx=0;entryDy=0;entryPerimeter=0;" edge="1" parent="1" source="hwyYwkf5o8Iqh9SDKznZ-25" target="hwyYwkf5o8Iqh9SDKznZ-23">
          <mxGeometry relative="1" as="geometry">
            <Array as="points">
              <mxPoint x="240" y="320" />
            </Array>
          </mxGeometry>
        </mxCell>
        <mxCell id="hwyYwkf5o8Iqh9SDKznZ-27" style="edgeStyle=orthogonalEdgeStyle;rounded=0;orthogonalLoop=1;jettySize=auto;html=1;entryX=0.882;entryY=-0.052;entryDx=0;entryDy=0;entryPerimeter=0;" edge="1" parent="1" source="hwyYwkf5o8Iqh9SDKznZ-25" target="hwyYwkf5o8Iqh9SDKznZ-23">
          <mxGeometry relative="1" as="geometry">
            <Array as="points">
              <mxPoint x="596" y="320" />
            </Array>
          </mxGeometry>
        </mxCell>
        <mxCell id="hwyYwkf5o8Iqh9SDKznZ-28" value="S3 BUCKET&lt;br&gt;" style="outlineConnect=0;dashed=0;verticalLabelPosition=bottom;verticalAlign=top;align=center;html=1;shape=mxgraph.aws3.s3;fillColor=#E05243;gradientColor=none;" vertex="1" parent="1">
          <mxGeometry x="381.75" y="670" width="76.5" height="93" as="geometry" />
        </mxCell>
        <mxCell id="hwyYwkf5o8Iqh9SDKznZ-30" value="AWS Account" style="points=[[0,0],[0.25,0],[0.5,0],[0.75,0],[1,0],[1,0.25],[1,0.5],[1,0.75],[1,1],[0.75,1],[0.5,1],[0.25,1],[0,1],[0,0.75],[0,0.5],[0,0.25]];outlineConnect=0;gradientColor=none;html=1;whiteSpace=wrap;fontSize=12;fontStyle=0;container=1;pointerEvents=0;collapsible=0;recursiveResize=0;shape=mxgraph.aws4.group;grIcon=mxgraph.aws4.group_account;strokeColor=#CD2264;fillColor=none;verticalAlign=top;align=left;spacingLeft=30;fontColor=#CD2264;dashed=0;" vertex="1" parent="1">
          <mxGeometry x="40" y="80" width="760" height="720" as="geometry" />
        </mxCell>
        <mxCell id="hwyYwkf5o8Iqh9SDKznZ-32" style="edgeStyle=orthogonalEdgeStyle;rounded=0;orthogonalLoop=1;jettySize=auto;html=1;" edge="1" parent="1" source="hwyYwkf5o8Iqh9SDKznZ-31" target="hwyYwkf5o8Iqh9SDKznZ-25">
          <mxGeometry relative="1" as="geometry" />
        </mxCell>
        <mxCell id="hwyYwkf5o8Iqh9SDKznZ-31" value="" style="image;aspect=fixed;perimeter=ellipsePerimeter;html=1;align=center;shadow=0;dashed=0;spacingTop=3;image=img/lib/active_directory/users.svg;" vertex="1" parent="1">
          <mxGeometry x="394.26" y="-30" width="51.48" height="78" as="geometry" />
        </mxCell>
      </root>
    </mxGraphModel>
  </diagram>
</mxfile>
